<?xml version="1.0" standalone="no"?>
<!DOCTYPE svg PUBLIC "-//W3C//DTD SVG 20010904//EN"
 "http://www.w3.org/TR/2001/REC-SVG-20010904/DTD/svg10.dtd">
<svg version="1.0" xmlns="http://www.w3.org/2000/svg"
 width="1024.000000pt" height="1024.000000pt" viewBox="0 0 1024.000000 1024.000000"
 preserveAspectRatio="xMidYMid meet">

<g transform="translate(0.000000,1024.000000) scale(0.100000,-0.100000)"
fill="#000000" stroke="none">
<path d="M4903 8679 c-49 -24 -109 -87 -129 -135 -41 -98 14 -239 111 -286
l43 -21 7 -412 c4 -227 5 -417 2 -422 -3 -4 -80 -7 -171 -5 l-166 3 0 236 c0
215 -2 240 -20 278 -34 69 -62 79 -212 71 -126 -6 -128 -6 -128 15 0 80 -80
187 -156 208 -88 25 -147 11 -228 -52 -51 -40 -76 -96 -76 -173 0 -49 5 -68
29 -106 51 -80 118 -120 205 -121 70 -1 128 23 168 72 l25 29 134 4 134 3 0
-230 0 -230 -240 -6 c-267 -7 -333 -16 -450 -63 -107 -42 -181 -93 -263 -181
-139 -149 -205 -340 -201 -582 1 -57 -1 -106 -4 -109 -3 -3 -172 -8 -376 -10
l-371 -4 0 33 c-1 70 -66 167 -135 198 -53 24 -147 24 -200 0 -53 -24 -111
-90 -126 -143 -12 -46 -6 -136 12 -172 74 -142 265 -183 378 -81 l38 34 391 3
392 3 0 -176 0 -177 -500 2 -500 1 -21 43 c-35 71 -115 122 -191 122 -76 0
-178 -65 -209 -134 -25 -54 -25 -148 0 -201 53 -115 189 -167 298 -114 43 21
123 101 123 124 0 7 7 16 16 19 9 3 145 6 303 6 l288 0 1 -720 2 -720 -37 -15
c-100 -42 -148 -112 -147 -215 1 -68 31 -146 71 -182 35 -32 107 -58 161 -58
127 0 224 85 239 210 11 97 -42 196 -128 241 l-39 19 0 720 0 720 138 0 137 0
-3 -162 c-2 -90 1 -314 6 -498 10 -307 12 -342 34 -415 32 -108 96 -213 182
-300 81 -82 151 -130 248 -169 103 -41 151 -46 418 -46 l247 0 7 -37 c3 -21 6
-72 6 -114 l0 -76 -187 -6 c-104 -4 -228 -7 -278 -6 l-90 0 -30 47 c-36 57
-116 102 -179 102 -91 -1 -175 -54 -212 -134 -37 -80 -29 -139 32 -228 53 -75
177 -103 268 -59 50 25 103 79 118 123 l10 28 511 0 c565 0 554 -1 601 63 18
25 21 46 24 163 l4 134 174 0 174 0 0 -102 c0 -118 11 -165 46 -207 43 -51 72
-56 366 -53 l267 3 27 -30 c33 -37 85 -57 113 -42 48 26 76 115 51 162 -12 22
-32 26 -24 4 4 -8 1 -15 -5 -15 -6 0 -11 -9 -11 -20 0 -13 -7 -20 -19 -20 -11
0 -22 -4 -25 -8 -2 -4 -19 -9 -36 -10 -31 -2 -31 -2 -28 40 2 34 8 45 28 55
19 9 26 9 32 0 5 -8 8 -6 8 6 0 12 8 17 28 17 21 0 24 2 12 10 -28 18 -99 12
-117 -10 -17 -19 -30 -20 -304 -20 l-287 0 1 118 2 117 270 6 c297 6 299 7
445 76 129 62 233 165 303 300 73 142 84 197 92 486 l8 247 109 0 110 0 -6
-27 c-3 -16 -10 -113 -16 -218 -5 -104 -15 -271 -20 -370 -29 -500 -30 -557
-19 -618 21 -118 94 -218 194 -267 76 -37 181 -35 253 4 108 60 179 170 189
293 3 37 -5 184 -17 327 -12 142 -19 264 -16 271 4 11 52 12 232 9 l228 -5 17
-38 c24 -55 83 -116 136 -142 142 -69 330 62 333 232 2 163 -146 292 -296 259
-63 -14 -107 -49 -154 -121 l-37 -58 -230 -6 -230 -5 -11 142 c-6 79 -14 187
-18 241 l-6 97 120 0 120 0 30 -53 c17 -31 48 -65 73 -82 37 -27 51 -30 115
-30 64 0 77 3 116 30 153 107 94 345 -94 379 -62 11 -117 -10 -169 -65 l-47
-49 -130 0 -129 0 -7 53 c-3 28 -6 108 -6 177 l0 125 319 -3 319 -3 6 -22 c9
-35 64 -96 107 -117 81 -42 198 -21 261 47 61 65 79 192 39 270 -45 90 -154
140 -249 114 -60 -16 -127 -66 -149 -112 l-18 -36 -185 -6 c-231 -9 -389 -9
-427 -1 l-30 6 -2 169 -2 169 119 0 c66 0 127 2 134 5 9 4 26 -11 46 -38 41
-58 90 -82 168 -82 50 0 70 6 109 30 179 111 88 385 -128 385 -55 0 -126 -54
-157 -118 l-25 -52 -135 2 -135 3 2 99 c4 179 46 286 183 471 149 201 217 379
227 596 14 304 -106 608 -300 757 -84 65 -215 122 -295 129 -111 9 -260 -41
-365 -123 -70 -54 -161 -173 -206 -267 -75 -157 -114 -393 -93 -556 23 -171
101 -364 205 -506 123 -170 176 -309 184 -487 l6 -118 -119 0 c-66 0 -124 4
-130 8 -7 4 -13 63 -17 162 -5 175 -18 234 -76 355 -92 192 -250 329 -451 390
-58 17 -388 39 -513 33 l-67 -3 0 231 0 231 163 -5 c161 -5 162 -5 195 -33 57
-50 89 -61 162 -57 80 4 133 35 179 105 53 80 52 169 -2 250 -90 133 -252 144
-360 24 -36 -40 -40 -48 -55 -126 l-8 -40 -179 -5 c-99 -3 -185 -9 -192 -13
-26 -16 -33 -89 -33 -322 l0 -240 -172 3 c-95 2 -173 4 -173 5 0 1 1 189 3
417 l4 415 41 20 c85 41 144 168 118 254 -44 149 -197 230 -318 170z m157
-148 c40 -40 48 -76 24 -120 -24 -44 -61 -66 -97 -57 -44 11 -87 56 -94 98 -5
33 -2 41 30 73 46 46 95 48 137 6z m2160 -175 c27 -10 37 -20 44 -47 5 -19 9
-225 9 -459 1 -393 -1 -428 -18 -463 -22 -46 -51 -67 -103 -74 -48 -6 -77 8
-102 50 -17 27 -20 51 -20 145 0 62 -7 222 -15 355 -9 133 -14 296 -13 362 l3
119 40 12 c52 16 131 16 175 0z m321 -312 c22 -54 23 -58 7 -48 -17 11 -48 12
-53 4 -3 -4 2 -97 11 -206 23 -291 15 -360 -57 -510 -22 -44 -155 -184 -176
-184 -7 0 -13 -4 -13 -9 0 -5 -9 -13 -21 -16 -26 -8 -79 -60 -79 -77 0 -8 -5
-52 -11 -98 -11 -93 -3 -212 13 -189 8 12 10 12 15 0 5 -11 7 -11 14 0 19 29
33 -26 35 -136 13 -712 15 -975 6 -975 -7 0 -8 53 -5 153 5 137 3 158 -16 214
-13 38 -21 87 -21 127 0 43 -4 66 -12 69 -10 3 -13 60 -13 239 0 223 -5 271
-24 239 -5 -7 -11 -158 -14 -335 -7 -363 -7 -381 5 -751 17 -545 25 -1013 20
-1125 l-5 -115 -41 -20 c-98 -48 -80 -144 30 -162 29 -5 38 -1 64 27 16 18 30
28 30 22 0 -10 -31 -52 -63 -87 -11 -11 -29 -36 -42 -55 -39 -61 -51 -67 -93
-45 -41 23 -77 71 -92 124 -14 51 -12 218 5 408 19 217 33 485 45 848 5 165
17 482 26 705 8 223 14 455 11 515 -9 187 -73 359 -198 527 -73 98 -109 167
-152 291 -31 90 -32 96 -31 257 1 187 15 271 65 378 38 82 118 197 129 185 7
-7 20 -288 34 -743 3 -132 13 -159 78 -215 74 -64 111 -77 197 -73 62 2 89 9
143 36 105 51 101 39 109 387 4 165 8 373 8 463 l1 163 56 -81 c30 -45 64
-102 75 -126z m-1462 41 c36 -18 65 -77 56 -113 -9 -36 -54 -82 -80 -82 -48 0
-86 22 -106 62 -23 45 -16 79 24 116 38 34 65 39 106 17z m-2010 -24 c59 -55
30 -146 -52 -166 -34 -9 -86 20 -68 38 14 14 15 30 1 22 -5 -3 -10 3 -10 14 0
11 -5 23 -11 27 -8 5 -10 -3 -7 -24 2 -17 1 -29 -4 -26 -22 14 -5 87 30 127
25 28 84 22 121 -12z m3521 -161 c38 -133 43 -385 10 -462 -8 -17 -9 -8 -4 32
11 82 11 180 2 180 -5 0 -9 19 -9 43 1 23 -3 71 -9 107 -12 83 -21 184 -16
179 3 -2 14 -38 26 -79z m-1485 -672 c106 -36 155 -70 155 -106 0 -16 -5 -33
-11 -39 -18 -18 -19 -124 -1 -158 8 -16 19 -43 23 -60 5 -16 21 -64 36 -105
l28 -75 -2 -883 c-2 -973 2 -914 -65 -1042 -38 -75 -44 -81 -113 -126 -100
-64 -174 -85 -315 -90 -47 -1 -94 -4 -105 -7 -11 -3 -27 -6 -35 -6 -11 -1 -12
-3 -3 -9 7 -4 -18 -6 -55 -4 -37 2 -71 8 -77 13 -14 14 -35 11 -35 -5 0 -9 -8
-12 -25 -8 -14 2 -25 8 -25 13 0 5 -104 8 -232 8 -181 -1 -221 -4 -180 -11 41
-8 52 -13 52 -29 0 -12 7 -19 20 -19 13 0 20 -7 20 -20 0 -17 7 -20 40 -20 22
0 40 -4 40 -10 0 -5 9 -10 19 -10 11 0 21 -5 23 -11 5 -15 251 -14 256 0 2 7
46 11 115 10 72 0 105 -3 92 -9 -14 -6 7 -9 65 -11 l85 -2 -95 -9 c-52 -4
-493 -7 -980 -5 l-885 4 -73 26 c-40 14 -95 38 -123 53 -69 38 -177 155 -216
234 -68 140 -66 100 -73 1005 -8 950 -6 1032 40 1158 73 199 249 353 442 386
30 5 501 8 1073 8 l1020 -2 80 -27z m1386 -31 c-10 -9 -11 -8 -5 6 3 10 9 15
12 12 3 -3 0 -11 -7 -18z m-11 -23 c0 -6 -90 -126 -101 -134 -14 -10 -87 -167
-109 -232 -21 -65 -39 -95 -26 -44 3 14 2 28 -4 31 -5 3 -10 26 -10 50 0 24
-4 47 -10 50 -5 3 -10 11 -10 17 0 7 6 6 15 -2 13 -11 15 -8 15 14 0 60 101
196 144 196 8 0 18 9 21 20 4 13 15 20 31 20 13 0 24 5 24 10 0 6 5 10 10 10
6 0 10 -3 10 -6z m-283 -246 c-3 -7 -5 -2 -5 12 0 14 2 19 5 13 2 -7 2 -19 0
-25z m-697 -238 c0 -11 -4 -20 -9 -20 -5 0 -7 9 -4 20 3 11 7 20 9 20 2 0 4
-9 4 -20z m-4104 -125 c29 -19 54 -75 54 -118 0 -50 -45 -87 -107 -87 -97 0
-150 114 -87 189 22 27 33 31 73 31 25 0 56 -7 67 -15z m4101 -57 c-2 -13 -4
-5 -4 17 -1 22 1 32 4 23 2 -10 2 -28 0 -40z m1348 -18 c61 -23 84 -90 43
-127 -48 -43 -120 -36 -138 13 -13 34 3 88 33 109 25 18 28 18 62 5z m-948
-174 c2 -2 0 -80 -4 -174 l-6 -172 -123 0 -124 0 3 178 2 178 125 -4 c69 -2
126 -5 127 -6z m1388 -331 c48 -48 47 -87 -1 -143 -46 -54 -78 -56 -128 -8
-30 28 -36 40 -36 76 0 34 6 48 34 76 46 46 83 46 131 -1z m-6112 -3 c35 -36
43 -81 23 -120 -20 -38 -62 -72 -91 -72 -28 0 -71 33 -90 70 -24 46 -19 78 19
116 45 45 99 48 139 6z m4719 -147 c2 -3 1 -31 -3 -62 -4 -31 -9 -105 -11
-164 l-3 -107 -44 -6 c-24 -3 -75 -6 -112 -6 l-69 0 0 175 0 175 118 0 c65 0
121 -2 124 -5z m358 -337 c0 -72 -7 -75 -10 -3 -3 56 -2 65 5 65 3 0 5 -28 5
-62z m620 -25 c55 -37 62 -68 30 -121 -34 -56 -73 -59 -127 -9 -32 28 -30 77
3 116 29 35 58 39 94 14z m-610 -316 c0 -35 2 -126 5 -203 3 -76 3 -132 -1
-124 -13 35 -16 48 -20 95 -6 67 -8 211 -4 258 6 61 20 42 20 -26z m-23 -229
c-3 -7 -5 -2 -5 12 0 14 2 19 5 13 2 -7 2 -19 0 -25z m941 -4 c31 -22 52 -66
52 -113 0 -57 -48 -111 -97 -111 -65 0 -133 59 -133 116 0 35 28 91 54 109 27
20 96 19 124 -1z m-1713 -161 c-10 -41 -25 -52 -25 -19 0 15 4 25 10 21 6 -3
10 1 10 9 0 9 3 16 6 16 3 0 3 -12 -1 -27z m-56 -123 c-13 -22 -32 -48 -43
-58 -20 -16 -20 -16 -7 1 7 9 10 17 6 17 -5 0 1 8 12 18 11 9 25 27 32 40 6
12 14 22 17 22 3 0 -5 -18 -17 -40z m-274 -219 c-6 -5 -21 -11 -35 -15 -21 -5
-20 -3 5 9 35 17 42 18 30 6z m-104 -33 c-18 -5 -37 -6 -42 -1 -4 4 11 9 34
10 l42 1 -34 -10z m1266 -100 c-3 -8 -6 -5 -6 6 -1 11 2 17 5 13 3 -3 4 -12 1
-19z m-4248 -34 c43 -36 58 -91 37 -136 -18 -37 -61 -68 -96 -68 -54 0 -120
61 -120 112 0 99 106 154 179 92z m1886 -124 l0 -115 -165 4 c-91 2 -166 5
-168 6 -7 6 -15 194 -9 209 6 14 28 16 174 14 l168 -3 0 -115z m2372 38 c-2
-13 -4 -5 -4 17 -1 22 1 32 4 23 2 -10 2 -28 0 -40z m-3572 -142 c61 -26 74
-94 28 -146 -48 -54 -133 -35 -158 34 -12 34 17 94 55 113 32 16 34 16 75 -1z"/>
<path d="M7602 7680 c0 -14 2 -19 5 -12 2 6 2 18 0 25 -3 6 -5 1 -5 -13z"/>
<path d="M4015 6799 c-142 -70 -177 -223 -79 -337 50 -59 99 -82 174 -82 33 0
75 6 93 14 45 18 103 88 123 148 20 61 8 119 -38 185 -57 84 -183 117 -273 72z
m136 -125 c17 -8 37 -30 45 -50 13 -30 13 -38 -1 -64 -35 -68 -110 -77 -159
-19 -30 35 -33 75 -8 105 36 45 74 54 123 28z"/>
<path d="M4968 6342 c5 -9 12 -24 15 -32 3 -9 6 -4 6 11 1 15 -6 29 -14 33
-12 4 -13 2 -7 -12z"/>
<path d="M4550 6344 c0 -5 7 -18 15 -28 12 -16 15 -17 15 -4 0 8 -7 21 -15 28
-8 7 -15 9 -15 4z"/>
<path d="M4478 5940 l-517 -5 -23 -23 c-20 -19 -23 -32 -21 -85 5 -129 77
-320 171 -452 83 -117 302 -307 386 -335 43 -14 47 -27 44 -134 -4 -120 0
-123 163 -137 153 -14 703 -7 740 9 38 15 59 76 59 172 l0 79 59 31 c86 46
191 136 281 241 121 141 202 312 231 482 15 88 4 129 -39 146 -33 12 -799 18
-1534 11z m1212 -165 c0 -61 -58 -195 -119 -274 -68 -88 -214 -207 -321 -261
-146 -75 -262 -99 -471 -100 -185 0 -229 11 -348 91 -194 131 -329 327 -365
531 l-7 38 233 2 c128 2 495 4 816 5 l582 1 0 -33z m230 30 c0 -12 -51 -156
-71 -200 -56 -126 -236 -350 -281 -350 -5 0 -7 -4 -5 -8 1 -5 -14 -17 -33 -28
-41 -21 -63 -24 -37 -5 14 11 15 15 5 20 -7 3 1 3 17 1 17 -3 25 -3 18 1 -15
7 5 44 24 44 7 0 17 17 23 39 13 48 37 72 51 50 7 -11 9 -10 9 5 0 21 59 116
72 116 5 0 6 5 3 11 -4 5 5 36 20 67 58 119 65 138 65 159 0 46 18 71 52 76
57 7 68 7 68 2z m-450 -610 c0 -9 -59 -35 -77 -34 -10 0 2 9 27 19 53 22 50
21 50 15z m-120 -45 c-33 -11 -62 -12 -56 -2 2 4 22 8 43 9 33 1 34 0 13 -7z
m-418 -159 c176 -6 309 -2 376 14 21 5 22 2 22 -47 l0 -53 -283 0 c-155 0
-308 1 -339 3 l-58 2 0 50 0 50 43 -6 c23 -3 131 -8 239 -13z"/>
<path d="M3958 5140 c-62 -33 -106 -119 -93 -183 41 -189 243 -251 344 -104
59 86 61 161 7 232 -54 71 -178 97 -258 55z m149 -122 c29 -27 29 -65 1 -95
-27 -29 -67 -30 -102 -2 -33 26 -34 62 -1 94 30 31 71 32 102 3z"/>
<path d="M5867 5150 c-16 -5 -44 -21 -64 -35 -97 -75 -98 -179 -2 -272 77 -74
147 -83 225 -30 65 44 97 104 92 174 -5 57 -41 119 -85 149 -30 19 -126 27
-166 14z m98 -120 c40 -25 48 -42 34 -78 -27 -70 -74 -81 -133 -29 -33 30 -36
36 -27 60 10 25 63 67 85 67 5 0 23 -9 41 -20z"/>
<path d="M2653 8492 c-91 -32 -213 -143 -213 -193 0 -7 -9 -9 -22 -5 -98 28
-206 10 -293 -49 -60 -41 -98 -87 -133 -163 -23 -50 -27 -69 -26 -152 0 -126
24 -188 105 -275 62 -66 103 -88 182 -100 l47 -7 2 -112 c1 -61 1 -140 -1
-176 -1 -36 0 -107 4 -158 l7 -93 421 1 c232 1 441 4 464 7 l43 6 2 261 3 261
59 7 c71 9 127 40 187 105 149 159 153 385 9 537 -33 35 -73 64 -113 82 -54
25 -74 28 -156 29 l-94 0 -32 43 c-33 47 -95 90 -185 130 -76 33 -195 40 -267
14z m239 -159 c72 -32 130 -93 152 -161 10 -29 23 -52 29 -52 6 0 30 9 53 20
52 26 134 36 161 21 14 -7 25 -29 34 -63 48 -201 -38 -319 -232 -317 -61 1
-74 -2 -96 -23 -77 -70 -109 -169 -123 -376 -6 -86 -14 -173 -18 -192 l-8 -35
-197 -9 c-109 -5 -199 -7 -201 -5 -2 2 -5 94 -7 203 l-4 199 42 14 c23 8 62
33 87 57 36 33 46 49 46 75 0 62 -33 89 -69 57 -35 -31 -122 -66 -180 -72 -82
-9 -135 12 -195 76 -58 62 -68 88 -69 172 0 121 63 212 169 244 53 16 93 12
168 -18 58 -22 71 -19 79 19 8 43 68 124 115 157 73 51 161 54 264 9z m544
-319 c24 -41 26 -52 21 -115 -6 -68 -35 -139 -48 -118 -3 6 0 28 7 50 15 41
12 187 -3 198 -9 7 -15 31 -8 31 2 0 16 -21 31 -46z m-227 -253 c12 -8 9 -11
-13 -17 -45 -11 -10 -24 67 -24 74 0 86 -12 31 -30 -74 -25 -201 13 -187 55 5
18 4 19 -13 5 -18 -14 -18 -14 -5 3 15 19 94 24 120 8z m165 -31 c-6 -6 -10
-2 -11 12 -2 16 1 18 10 9 7 -7 8 -14 1 -21z m-284 -230 c0 -32 -5 -62 -11
-65 -7 -5 -9 12 -7 53 2 41 -2 65 -12 77 -14 17 -13 17 8 6 19 -10 22 -20 22
-71z m-13 -257 c-3 -10 -5 -2 -5 17 0 19 2 27 5 18 2 -10 2 -26 0 -35z"/>
<path d="M4441 8354 c-29 -37 -27 -78 5 -103 37 -29 68 -26 98 10 32 38 33 63
1 94 -33 34 -77 33 -104 -1z"/>
<path d="M5476 8348 c-18 -25 -20 -56 -6 -78 13 -20 23 -6 22 30 0 21 5 33 16
37 48 15 48 15 27 23 -32 14 -43 11 -59 -12z"/>
<path d="M8175 8167 c-17 -13 -20 -27 -20 -99 0 -54 5 -93 15 -113 14 -27 20
-30 60 -30 l45 0 -4 120 c-2 66 -4 121 -6 123 -11 12 -73 11 -90 -1z"/>
<path d="M8052 8067 c-13 -37 -16 -127 -4 -127 4 0 24 14 45 31 35 29 38 35
35 78 -3 43 -5 46 -33 49 -27 3 -32 -1 -43 -31z"/>
<path d="M8091 7630 c-17 -77 -15 -100 9 -100 11 0 20 4 20 10 0 12 27 8 58
-8 22 -13 22 -12 22 52 0 89 -4 96 -55 96 l-43 0 -11 -50z"/>
<path d="M6001 7653 c-11 -10 -24 -32 -27 -50 -5 -26 -1 -37 19 -57 15 -14 35
-26 45 -26 56 0 93 89 53 129 -26 26 -62 27 -90 4z"/>
<path d="M8014 7171 c-42 -19 -105 -85 -126 -133 -13 -28 -14 -28 -104 -28
-104 0 -104 0 -104 -80 0 -58 4 -60 115 -60 75 0 84 -2 90 -20 13 -40 84 -118
127 -139 52 -25 151 -28 202 -7 123 51 187 218 129 331 -28 53 -89 113 -138
136 -52 24 -138 24 -191 0z m129 -125 c42 -17 87 -70 87 -103 0 -35 -38 -99
-67 -112 -51 -24 -103 -6 -103 36 0 14 -2 15 -9 4 -14 -22 -42 30 -43 78 0 45
12 65 57 93 36 22 37 22 78 4z"/>
<path d="M2915 6864 c-104 -35 -156 -155 -102 -234 33 -49 70 -72 125 -78 58
-5 95 11 141 63 93 106 -31 295 -164 249z m6 -127 c-10 -9 -11 -8 -5 6 3 10 9
15 12 12 3 -3 0 -11 -7 -18z m19 -48 c0 -5 -7 -6 -15 -3 -8 4 -15 13 -15 21 0
13 3 13 15 3 8 -7 15 -16 15 -21z"/>
<path d="M8182 6448 c-19 -19 -14 -57 13 -83 29 -30 35 -31 69 -4 30 24 34 59
8 82 -22 20 -73 22 -90 5z"/>
<path d="M2362 5603 c-26 -9 -36 -52 -46 -198 l-11 -150 -113 -3 -112 -3 2
-422 3 -422 83 -9 82 -9 0 -193 0 -194 120 0 120 0 2 198 3 197 65 3 c37 2 71
9 80 17 23 20 23 821 0 835 -8 5 -56 10 -106 10 l-91 0 -7 146 c-4 80 -11 156
-16 169 -9 23 -35 35 -58 28z m171 -470 c5 -11 -11 -434 -17 -441 -3 -2 -12 1
-21 8 -8 7 -21 10 -29 7 -15 -6 -56 -89 -56 -112 0 -27 38 -55 76 -57 55 -2
-93 -15 -192 -17 l-81 -1 -6 233 c-4 127 -7 267 -7 310 l0 77 164 0 c91 0 167
-3 169 -7z m-143 -883 l0 -140 -24 0 -24 0 5 128 c5 144 7 152 28 152 13 0 15
-21 15 -140z"/>
<path d="M8184 5395 c-9 -13 -13 -33 -9 -44 10 -33 45 -71 66 -71 22 0 59 54
59 86 0 53 -86 75 -116 29z"/>
<path d="M7811 4373 c-5 -10 -25 -63 -45 -118 -19 -55 -45 -126 -57 -157 -28
-75 -23 -88 39 -88 47 0 50 2 56 30 5 30 6 30 70 30 62 0 64 -1 75 -30 9 -28
13 -30 65 -30 79 0 82 15 26 135 -16 33 -43 102 -60 153 l-33 92 -63 0 c-50 0
-65 -4 -73 -17z m87 -160 c21 -53 20 -58 -18 -54 -19 1 -36 4 -38 6 -5 4 31
75 39 75 3 0 11 -12 17 -27z"/>
<path d="M8155 4374 c-19 -4 -20 -12 -17 -147 3 -184 7 -205 36 -213 13 -3 35
-4 47 -2 l24 3 0 180 0 180 -35 1 c-19 1 -44 0 -55 -2z"/>
<path d="M2092 3481 c-146 -50 -189 -196 -85 -292 41 -39 78 -55 168 -73 98
-20 125 -37 125 -76 0 -71 -115 -87 -235 -31 l-69 32 -40 -41 c-40 -40 -40
-40 -21 -59 11 -11 49 -34 85 -53 60 -31 72 -33 160 -33 79 0 102 4 136 22
114 61 156 192 86 274 -33 40 -83 64 -187 90 -50 13 -99 32 -113 44 -23 20
-25 26 -15 48 24 51 125 59 219 18 l44 -20 14 27 c8 15 26 38 40 51 l26 24
-98 33 c-110 38 -164 41 -240 15z"/>
<path d="M7114 3491 c-6 -7 -4 -584 2 -608 6 -21 13 -23 65 -23 l59 0 0 314 0
314 -61 4 c-33 1 -63 1 -65 -1z"/>
<path d="M7370 3350 c0 -80 -3 -223 -7 -317 l-6 -173 73 0 73 0 -6 60 c-3 33
-3 77 0 97 l5 38 64 -3 c119 -7 222 40 262 118 38 75 26 159 -33 227 -58 68
-105 83 -277 91 l-148 7 0 -145z m308 -5 c52 -44 54 -123 4 -149 -15 -7 -64
-16 -109 -19 l-83 -6 0 99 0 100 79 0 c70 0 83 -3 109 -25z"/>
<path d="M2534 3474 c3 -9 6 -150 6 -315 l0 -299 60 0 60 0 2 191 3 191 71
-110 c40 -61 84 -118 98 -127 25 -17 27 -17 47 1 12 10 45 55 74 99 30 44 62
91 73 104 l19 23 6 -113 c4 -63 7 -147 7 -186 l0 -73 60 0 60 0 0 315 0 315
-59 0 -58 0 -40 -57 c-22 -32 -68 -104 -102 -160 -57 -93 -81 -121 -81 -94 0
6 -46 78 -101 160 l-102 151 -54 0 c-46 0 -54 -3 -49 -16z"/>
<path d="M3487 3468 c-6 -26 -143 -363 -206 -507 -22 -52 -41 -96 -41 -98 0
-2 31 -3 70 -3 68 0 70 1 76 28 4 15 15 44 26 65 l18 37 124 0 c142 0 145 -1
171 -80 l17 -50 69 0 c40 0 69 4 69 10 0 19 -132 323 -217 503 l-56 117 -57 0
c-52 0 -58 -2 -63 -22z m160 -355 c4 -10 -16 -13 -81 -13 -47 0 -86 2 -86 4 0
4 44 124 70 191 11 29 12 29 51 -70 22 -55 43 -106 46 -112z"/>
<path d="M4498 3430 l4 -60 93 0 93 0 8 -77 c3 -43 4 -157 2 -255 l-5 -178 54
0 c38 0 55 4 59 15 3 8 7 122 8 252 l1 238 50 1 c28 0 71 1 98 2 l47 2 0 59 0
60 -257 1 -258 0 3 -60z"/>
<path d="M5340 3206 c0 -156 3 -298 6 -315 6 -30 7 -31 65 -31 l59 0 0 105 0
105 58 0 57 0 67 -89 c37 -48 70 -95 74 -105 5 -13 20 -16 75 -16 43 0 69 4
69 11 0 6 -21 38 -47 72 -27 33 -60 79 -75 100 l-27 40 32 16 c63 32 109 148
93 234 -8 45 -70 115 -120 138 -35 16 -68 19 -213 19 l-173 0 0 -284z m313
153 c45 -12 74 -60 63 -103 -12 -47 -59 -66 -161 -66 l-91 0 2 88 c2 48 3 88
3 90 3 7 152 0 184 -9z"/>
<path d="M5954 3465 c3 -11 6 -152 6 -312 l0 -293 218 7 c119 3 218 6 218 7 1
1 -1 26 -3 57 l-5 57 -149 -3 -149 -2 0 58 c0 55 2 59 26 65 15 4 73 4 130 1
l104 -5 0 67 0 66 -130 -3 -130 -4 0 44 c0 24 -3 53 -6 66 l-6 22 156 0 156 0
0 43 c0 23 3 51 6 62 5 20 0 20 -221 20 -221 0 -226 0 -221 -20z"/>
<path d="M6688 3477 c-100 -38 -178 -112 -207 -196 -15 -44 -14 -163 1 -214
17 -58 105 -149 170 -177 71 -31 179 -38 245 -16 47 15 133 78 133 95 0 5 -23
24 -51 44 l-52 36 -29 -24 c-74 -62 -164 -53 -240 25 -71 74 -77 157 -18 239
39 53 76 71 148 71 52 0 65 -4 105 -35 l46 -35 40 52 c22 29 37 56 35 60 -3 5
-38 25 -77 45 -83 42 -184 54 -249 30z"/>
<path d="M7920 3177 l0 -314 43 2 c23 1 124 2 225 3 l182 2 0 60 0 60 -160 0
-160 0 0 60 0 60 134 0 133 0 7 56 c3 30 4 59 1 63 -2 5 -65 6 -139 3 l-135
-5 -6 35 c-4 19 -5 50 -3 69 l3 34 158 3 157 3 0 59 0 60 -220 0 -220 0 0
-313z"/>
<path d="M3950 3171 l0 -311 65 0 65 0 0 93 c0 50 4 98 9 105 5 9 24 12 57 10
l49 -3 73 -102 73 -103 71 0 70 0 -17 28 c-10 15 -32 45 -50 67 -39 49 -85
117 -85 126 0 4 14 12 31 20 18 7 44 32 60 58 24 38 29 55 29 111 0 87 -35
146 -106 181 -45 22 -63 24 -221 27 l-173 3 0 -310z m345 166 c19 -16 27 -33
28 -59 2 -69 -50 -98 -175 -98 l-68 0 0 90 0 90 94 0 c84 0 98 -3 121 -23z"/>
<path d="M2689 2508 c-81 -29 -127 -63 -167 -124 -84 -126 -61 -295 54 -404
78 -74 130 -95 234 -95 72 0 93 4 140 27 106 52 105 48 108 197 l4 131 -55 0
c-30 0 -88 3 -130 6 l-77 7 0 -63 0 -63 65 7 65 7 0 -50 c0 -59 -10 -67 -92
-77 -153 -18 -278 131 -222 264 33 81 98 122 193 122 46 0 66 -6 105 -31 27
-16 49 -29 50 -27 2 2 13 20 26 41 12 21 31 42 42 46 15 5 2 15 -64 49 -109
55 -183 63 -279 30z"/>
<path d="M3164 2274 c2 -137 4 -279 5 -316 l1 -68 215 0 215 0 0 65 0 65 -154
0 -154 0 -4 60 -3 61 135 -2 135 -1 3 56 3 56 -141 0 -140 0 0 70 0 70 158 0
157 0 2 60 1 60 -188 0 c-103 0 -201 3 -218 6 l-30 6 2 -248z"/>
<path d="M3700 2205 l0 -315 66 0 66 0 -4 190 c-2 129 0 189 7 187 10 -3 157
-183 257 -315 48 -61 48 -62 98 -62 l50 0 0 313 0 312 -66 0 -67 0 5 -185 5
-185 -46 55 c-25 29 -84 97 -131 149 -47 53 -99 113 -114 134 -26 34 -32 37
-77 37 l-49 0 0 -315z"/>
<path d="M4360 2208 l0 -308 214 0 c118 0 221 -3 229 -6 12 -4 16 7 19 60 l3
66 -162 0 -163 0 0 60 0 60 130 0 130 0 0 43 c0 23 3 51 6 62 5 20 2 20 -73
14 -43 -4 -104 -8 -135 -8 l-58 -1 0 71 0 71 155 -4 155 -4 0 66 0 65 -225 0
-225 0 0 -307z"/>
<path d="M5682 2475 c-9 -34 -55 -152 -133 -340 -12 -27 -36 -92 -55 -143 -39
-106 -39 -105 51 -100 l58 3 16 45 c25 72 20 70 156 70 118 0 125 -1 139 -22
8 -13 17 -37 21 -55 7 -35 10 -36 123 -47 40 -4 53 -2 49 7 -3 7 -31 67 -62
135 -30 67 -69 160 -86 205 -17 45 -51 128 -77 185 l-47 102 -71 -2 -72 -3
-10 -40z m138 -207 c22 -46 43 -98 46 -115 l6 -33 -91 3 c-105 2 -101 -6 -45
111 19 39 34 81 34 93 0 13 2 23 5 23 3 0 23 -37 45 -82z"/>
<path d="M6030 2502 c0 -11 -3 -40 -6 -64 l-6 -45 96 -8 96 -7 0 -101 c0 -56
3 -166 7 -244 l6 -143 63 0 63 0 -6 250 -6 250 96 0 97 0 0 63 0 62 -250 3
c-240 3 -250 2 -250 -16z"/>
<path d="M6768 2497 c-133 -56 -192 -142 -192 -282 -1 -93 19 -144 87 -221 54
-61 128 -95 225 -102 91 -6 148 14 213 75 86 80 121 221 84 334 -21 62 -95
146 -164 187 -65 38 -175 42 -253 9z m200 -121 c34 -18 65 -51 87 -95 13 -26
16 -49 12 -94 -12 -132 -140 -207 -253 -149 -70 36 -108 99 -107 178 2 76 41
138 103 163 37 15 127 13 158 -3z"/>
<path d="M7290 2202 l0 -313 65 3 65 3 0 98 0 97 54 0 55 0 55 -77 c30 -43 62
-89 72 -102 15 -21 23 -23 75 -19 32 2 61 7 65 10 3 4 -9 28 -28 53 -18 26
-47 68 -65 93 l-32 45 48 46 c40 38 51 55 60 100 19 91 -1 153 -68 214 -54 48
-90 57 -269 60 l-152 2 0 -313z m327 162 c29 -22 39 -58 28 -101 -9 -35 -60
-53 -155 -53 l-80 0 0 91 0 91 89 -4 c72 -2 95 -7 118 -24z"/>
<path d="M4910 2201 l0 -311 73 0 72 0 -3 100 -3 100 58 0 58 0 58 -84 c82
-119 91 -125 155 -119 39 4 52 10 52 22 0 9 -32 57 -70 106 -75 97 -75 92 -11
127 45 25 65 71 66 154 0 60 -4 76 -28 112 -15 23 -46 54 -69 69 -41 28 -44
28 -225 31 l-183 4 0 -311z m329 174 c31 -16 54 -61 49 -97 -5 -36 -59 -57
-158 -60 l-85 -3 -3 88 -3 87 86 0 c56 0 96 -5 114 -15z"/>
<path d="M2007 2325 c-19 -18 -15 -91 4 -110 18 -18 135 -29 145 -14 3 6 0 15
-7 20 -11 6 -10 9 4 15 9 3 14 10 11 15 -3 5 0 9 7 9 6 0 9 8 6 19 -9 34 8 47
37 27 20 -12 26 -13 26 -3 0 29 -25 37 -121 37 -73 0 -101 -4 -112 -15z m99
-60 c9 -8 13 -19 9 -24 -9 -16 -35 -1 -35 20 0 23 7 24 26 4z m-76 -35 c0 -5
-4 -10 -9 -10 -6 0 -13 5 -16 10 -3 6 1 10 9 10 9 0 16 -4 16 -10z"/>
<path d="M8078 2333 c-14 -2 -32 -11 -40 -20 -12 -15 -11 -15 9 -5 12 7 46 12
75 13 29 0 62 4 73 9 21 9 -63 11 -117 3z"/>
</g>
</svg>
